<svg xmlns="http://www.w3.org/2000/svg" viewBox="0 0 100 100">
  <defs>
    <linearGradient id="grad" x1="0%" y1="0%" x2="100%" y2="100%">
      <stop offset="0%" style="stop-color:#8b00ff;stop-opacity:1" />
      <stop offset="50%" style="stop-color:#ff0066;stop-opacity:1" />
      <stop offset="100%" style="stop-color:#ff6600;stop-opacity:1" />
    </linearGradient>
  </defs>
  <!-- Circle background -->
  <circle cx="50" cy="50" r="48" fill="url(#grad)" />
  <!-- Raven silhouette -->
  <path d="M 30 45 Q 35 35 45 40 L 50 30 L 55 40 Q 65 35 70 45 Q 75 50 70 60 L 65 70 Q 60 75 50 75 Q 40 75 35 70 L 30 60 Q 25 50 30 45 Z" fill="#000000" opacity="0.8"/>
  <!-- Eye -->
  <circle cx="45" cy="48" r="3" fill="#ff0066" />
  <!-- Wing detail -->
  <path d="M 35 55 Q 40 60 45 55 Q 50 60 55 55" stroke="#2d0052" stroke-width="2" fill="none" opacity="0.6"/>
  <!-- Explosive effect particles -->
  <circle cx="20" cy="25" r="4" fill="#ffff00" opacity="0.9"/>
  <circle cx="80" cy="30" r="3" fill="#ff6600" opacity="0.9"/>
  <circle cx="75" cy="75" r="3" fill="#00ffff" opacity="0.9"/>
  <circle cx="25" cy="80" r="4" fill="#ff00ff" opacity="0.9"/>
</svg>
